<svg width="41" height="42" viewBox="0 0 41 42" fill="none" xmlns="http://www.w3.org/2000/svg">
<path d="M10.6666 0H30.6666C36.1866 0 40.6666 4.44076 40.6666 9.91704V21.8255V23.8168C40.6666 29.2931 36.1866 33.7339 30.6666 33.7339H27.6666C27.1266 33.7339 26.4066 34.0923 26.0666 34.5304L23.0666 38.4932C21.7466 40.2457 19.5866 40.2457 18.2666 38.4932L15.2666 34.5304C14.8866 34.0326 14.2866 33.7339 13.6666 33.7339H10.6666C5.14663 33.7339 0.666626 29.2931 0.666626 23.8168V9.91704C0.666626 4.44076 5.14663 0 10.6666 0ZM18.6666 23.3986H30.6666C31.4866 23.3986 32.1666 22.7216 32.1666 21.9051C32.1666 21.0886 31.4866 20.4116 30.6666 20.4116H18.6666C17.8466 20.4116 17.1666 21.0886 17.1666 21.9051C17.1666 22.7216 17.8466 23.3986 18.6666 23.3986ZM10.6666 13.4418H30.6666C31.4866 13.4418 32.1666 12.7647 32.1666 11.9482C32.1666 11.1318 31.4866 10.4547 30.6666 10.4547H10.6666C9.84663 10.4547 9.16663 11.1318 9.16663 11.9482C9.16663 12.7647 9.84663 13.4418 10.6666 13.4418Z" fill="white"/>
</svg>
