<svg width="45" height="45" viewBox="0 0 45 45" fill="none" xmlns="http://www.w3.org/2000/svg">
<path d="M22.1316 40.5935C32.1454 40.5935 40.2633 32.4017 40.2633 22.2967C40.2633 12.1917 32.1454 4 22.1316 4C12.1178 4 4 12.1917 4 22.2967C4 32.4017 12.1178 40.5935 22.1316 40.5935Z" stroke="white" stroke-width="7.6" stroke-miterlimit="10"/>
<path d="M10.6843 18.4192C11.2473 24.7315 14.9826 30.602 21.095 32.5318C23.1223 33.1588 25.2301 33.481 27.3504 33.4876C18.0209 37.2029 8.08383 28.1492 10.6753 18.4192H10.6843Z" fill="white"/>
<path d="M30.2458 15.1006C29.6828 16.3541 27.5649 16.5885 25.4828 15.6417C23.4006 14.6948 22.2121 12.9364 22.8019 11.6469C23.3917 10.3574 25.4828 10.159 27.5649 11.1148C29.6471 12.0707 30.8088 13.8562 30.2458 15.1006Z" fill="white"/>
<path d="M31.1306 18.2839C31.4662 18.2839 31.7383 18.0093 31.7383 17.6707C31.7383 17.332 31.4662 17.0575 31.1306 17.0575C30.795 17.0575 30.5229 17.332 30.5229 17.6707C30.5229 18.0093 30.795 18.2839 31.1306 18.2839Z" fill="white"/>
</svg>
