<svg width="37" height="38" viewBox="0 0 37 38" fill="none" xmlns="http://www.w3.org/2000/svg">
<path d="M36.0344 35.9715C36.0344 36.5095 35.8235 37.0254 35.448 37.4059C35.0726 37.7863 34.5634 38 34.0325 38H2.00191C1.47097 38 0.961777 37.7863 0.586346 37.4059C0.210915 37.0254 4.81881e-07 36.5095 4.81881e-07 35.9715V14.6515C-0.000211169 14.3424 0.0693004 14.0373 0.203226 13.7596C0.337151 13.4818 0.531948 13.2388 0.772737 13.049L16.788 0.427401C17.1394 0.150394 17.572 0 18.0172 0C18.4624 0 18.8949 0.150394 19.2464 0.427401L35.2616 13.049C35.5024 13.2388 35.6972 13.4818 35.8312 13.7596C35.9651 14.0373 36.0346 14.3424 36.0344 14.6515V35.9715ZM8.00764 25.8288V29.8858H28.0267V25.8288H8.00764Z" fill="white"/>
</svg>
