<svg width="46" height="48" viewBox="0 0 46 48" fill="none" xmlns="http://www.w3.org/2000/svg">
<path d="M11.9454 47.7708L17.9295 47.7708C25.2946 47.7708 29.8978 43.2159 29.8978 35.9281L29.8978 26.7045L15.5129 26.7045C14.5692 26.7045 13.7867 25.9302 13.7867 24.9964C13.7867 24.0627 14.5692 23.2883 15.5129 23.2883L29.8978 23.2883L29.8978 14.0647C29.8978 6.77693 25.2946 2.22205 17.9295 2.22205L11.9684 2.22205C4.60329 2.22205 9.32292e-05 6.77693 9.25921e-05 14.0647L9.06807e-05 35.9281C-0.0229259 43.2159 4.58027 47.7707 11.9454 47.7708Z" fill="white"/>
<path d="M40.1137 26.7049L35.3494 31.4191C35.0041 31.7607 34.843 32.1934 34.843 32.6261C34.843 33.0588 35.0041 33.5143 35.3494 33.8331C36.0168 34.4936 37.1216 34.4936 37.7891 33.8331L45.4994 26.2038C46.1669 25.5434 46.1669 24.4502 45.4994 23.7897L37.7891 16.1603C37.1216 15.4999 36.0168 15.4999 35.3494 16.1603C34.6819 16.8208 34.6819 17.914 35.3494 18.5744L40.1137 23.2887L29.8946 23.2887L29.8946 26.7049L40.1137 26.7049Z" fill="white"/>
</svg>
