<svg width="45" height="45" viewBox="0 0 45 45" fill="none" xmlns="http://www.w3.org/2000/svg">
<path d="M36.5302 39.1345C36.817 39.8531 36.4402 40.2806 35.692 40.0852L31.2581 38.9278C30.51 38.7323 29.5298 39.0881 29.0813 39.7181L26.1295 43.8567C25.6809 44.4867 25.1466 44.3911 24.9427 43.6444L22.5 34.688L20.0573 43.6444C19.8534 44.3911 19.3205 44.4853 18.8705 43.8567L15.9187 39.7181C15.4702 39.0881 14.49 38.7337 13.7419 38.9278L9.30797 40.0852C8.55984 40.2806 8.18297 39.8531 8.46984 39.1345L12.0727 30.1261C14.9442 32.3887 18.5597 33.75 22.5 33.75C26.4403 33.75 30.0558 32.3887 32.9273 30.1261L36.5302 39.1345ZM7.03125 16.875C7.03125 8.34609 13.9711 1.40625 22.5 1.40625C31.0289 1.40625 37.9688 8.34609 37.9688 16.875C37.9688 25.4039 31.0289 32.3437 22.5 32.3437C13.9711 32.3437 7.03125 25.4039 7.03125 16.875ZM14.0428 15.6164L16.2464 18.2419C16.7442 18.8339 17.1056 19.9505 17.0522 20.7225L16.8131 24.1425C16.7597 24.9145 17.3011 25.3083 18.0183 25.0186L21.1964 23.7333C21.9136 23.4436 23.0864 23.4436 23.8036 23.7333L26.9817 25.0186C27.6989 25.3083 28.2417 24.9145 28.1869 24.1425L27.9478 20.7225C27.8944 19.9505 28.2558 18.8353 28.7536 18.2419L30.9572 15.6164C31.455 15.0244 31.2469 14.3859 30.4973 14.1989L27.1702 13.3706C26.4192 13.1836 25.47 12.4945 25.0608 11.8378L23.2453 8.92969C22.8361 8.27437 22.1653 8.27437 21.7547 8.92969L19.9378 11.8378C19.5286 12.4931 18.5794 13.1836 17.8284 13.3706L14.5013 14.1989C13.7517 14.3859 13.545 15.023 14.0428 15.6164Z" fill="white"/>
</svg>
