<svg width="52" height="52" viewBox="0 0 52 52" fill="none" xmlns="http://www.w3.org/2000/svg">
<path d="M26 34.7433C30.8289 34.7433 34.7433 30.8289 34.7433 26C34.7433 21.171 30.8289 17.2566 26 17.2566C21.171 17.2566 17.2566 21.171 17.2566 26C17.2566 30.8289 21.171 34.7433 26 34.7433Z" fill="white"/>
<path d="M4.33337 27.9065V24.0931C4.33337 21.8398 6.17504 19.9766 8.45004 19.9766C12.3717 19.9766 13.975 17.2032 12.0034 13.8016C10.8767 11.8516 11.5484 9.31657 13.52 8.1899L17.2684 6.0449C18.98 5.02657 21.19 5.63324 22.2084 7.3449L22.4467 7.75657C24.3967 11.1582 27.6034 11.1582 29.575 7.75657L29.8134 7.3449C30.8317 5.63324 33.0417 5.02657 34.7534 6.0449L38.5017 8.1899C40.4734 9.31657 41.145 11.8516 40.0184 13.8016C38.0467 17.2032 39.65 19.9766 43.5717 19.9766C45.825 19.9766 47.6884 21.8181 47.6884 24.0931V27.9065C47.6884 30.1598 45.8467 32.0231 43.5717 32.0231C39.65 32.0231 38.0467 34.7965 40.0184 38.1982C41.145 40.1698 40.4734 42.6832 38.5017 43.8098L34.7534 45.9548C33.0417 46.9732 30.8317 46.3665 29.8134 44.6548L29.575 44.2432C27.625 40.8415 24.4184 40.8415 22.4467 44.2432L22.2084 44.6548C21.19 46.3665 18.98 46.9732 17.2684 45.9548L13.52 43.8098C11.5484 42.6832 10.8767 40.1482 12.0034 38.1982C13.975 34.7965 12.3717 32.0231 8.45004 32.0231C6.17504 32.0231 4.33337 30.1598 4.33337 27.9065Z" stroke="white" stroke-width="5" stroke-miterlimit="10" stroke-linecap="round" stroke-linejoin="round"/>
</svg>
